<?xml version="1.0" encoding="utf-8"?>
<!-- Generator: Adobe Illustrator 17.1.0, SVG Export Plug-In . SVG Version: 6.00 Build 0)  -->
<!DOCTYPE svg PUBLIC "-//W3C//DTD SVG 1.1//EN" "http://www.w3.org/Graphics/SVG/1.1/DTD/svg11.dtd">
<svg version="1.1" id="Layer_1" xmlns="http://www.w3.org/2000/svg" xmlns:xlink="http://www.w3.org/1999/xlink" x="0px" y="0px"
	 viewBox="0 0 15.3 16" enable-background="new 0 0 15.3 16" xml:space="preserve">
<g>
	<path fill="#393C41" d="M0.7,12l6.1,3.8C7,15.9,7.3,16,7.5,16c0.1,0,0.3,0,0.4-0.1l6.3-2.1c0.6-0.2,1-0.7,1-1.4v-2.4
		c0-0.4-0.2-0.9-0.6-1.1c-0.2-0.2-0.6-0.3-0.9-0.3c-0.1,0-0.2,0-0.3,0c-0.2-2.4-1.4-4.6-3-5.8V1.8c0-0.7-0.5-1.3-1.2-1.4L7.3,0
		C7.2,0,7.2,0,7.1,0C7,0,6.9,0,6.8,0L1.2,1.1C0.5,1.2,0,1.8,0,2.5v8.3C0,11.3,0.3,11.7,0.7,12z M1.4,2.5l5.7-1.1l2,0.3v1.9
		c1.6,0.8,3,3.1,3,5.6c0,0-6.3,1.8-6.3,1.8l1.7,0.9l6.3-1.9v2.4l-6.3,2.1l-6.1-3.8V2.5z"/>
	<polygon fill="#393C41" points="8.2,2.5 3.5,3.4 3.5,4.4 8.2,3.4 	"/>
	<path fill="#393C41" d="M7.9,5.9C8,5.8,8,5.6,7.9,5.4C7.6,5.1,7.1,4.9,6.7,5C6.6,5,6.5,5,6.4,5.1c-0.1,0.1-0.1,0.2,0,0.3
		c0.1,0.2,0.4,0.5,0.7,0.6c0.1,0,0.3,0.1,0.4,0.1C7.7,6.1,7.8,6.1,7.9,5.9z"/>
	<path fill="#393C41" d="M7.9,7C7.8,7.2,7.7,7.4,7.8,7.6c0.1,0.3,0.3,0.7,0.6,0.8c0.1,0,0.1,0,0.2,0c0.2,0,0.4-0.1,0.5-0.3
		c0.1-0.2,0.1-0.6,0-0.9C8.9,7,8.6,6.9,8.3,6.9l0,0C8.1,6.9,8,6.9,7.9,7z"/>
	<path fill="#393C41" d="M9.8,7.2c0.1,0.2,0.3,0.5,0.5,0.7c0.1,0,0.2,0.1,0.2,0.1c0.2,0,0.3-0.1,0.4-0.2C11,7.5,11.1,7.3,11,7
		c-0.1-0.4-0.5-0.7-0.8-0.7c-0.2,0-0.3,0.1-0.4,0.2C9.7,6.7,9.7,6.9,9.8,7.2z"/>
	<path fill="#393C41" d="M8.9,5.5c0.2,0.1,0.4,0.2,0.5,0.2c0.1,0,0.2,0,0.3-0.1C9.9,5.4,9.9,5.2,9.8,5c-0.1-0.4-0.6-0.6-1-0.6
		c-0.2,0-0.3,0.1-0.4,0.2C8.3,4.7,8.3,4.8,8.3,4.9C8.4,5.1,8.7,5.4,8.9,5.5z"/>
	<path fill="#393C41" d="M5.9,6.1c0-0.1-0.1-0.2-0.2-0.3C5.5,5.6,5.2,5.4,4.9,5.4c-0.2,0-0.4,0.1-0.5,0.2C4.3,5.7,4.3,5.9,4.3,6
		c0.1,0.2,0.4,0.5,0.7,0.6c0.1,0,0.2,0.1,0.3,0.1c0.2,0,0.4-0.1,0.5-0.2C5.9,6.4,6,6.2,5.9,6.1z"/>
	<path fill="#393C41" d="M6.4,9c0.1,0,0.1,0,0.2,0C6.7,9,6.9,9,7,8.8c0.1-0.2,0.2-0.5,0.1-0.7C7,7.6,6.5,7.4,6.1,7.4
		c-0.2,0-0.3,0.2-0.4,0.4C5.7,8,5.7,8.3,5.8,8.6C6,8.8,6.2,9,6.4,9z"/>
</g>
<g>
</g>
<g>
</g>
<g>
</g>
<g>
</g>
<g>
</g>
<g>
</g>
<g>
</g>
<g>
</g>
<g>
</g>
<g>
</g>
<g>
</g>
<g>
</g>
<g>
</g>
<g>
</g>
<g>
</g>
</svg>
